#!OML:ASF X:\für Bonn\!DataBase\2005_08_10_Bjorn_Final\c3d\bjorn.ASF
:FULLY-SPECIFIED
:DEGREES
46
root -28.5444 19.0942 -23.8158 -1434.47 -13.3638 -0.173073
lowerback -6.02885 2.0399 -0.798192
upperback 8.24099 3.05849 -2.07272
thorax 12.3768 1.50236 -1.30033
lowerneck 0.110053 -1.23472 1.59465
upperneck 13.281 -1.76663 0.208574
head 4.32597 -0.790675 -0.275559
rclavicle -6.36111e-015 3.10104e-014
rhumerus -28.0326 -10.903 -93.5168
rradius 41.3078
rwrist -0.720961
rhand -18.243 18.6792
rfingers 7.12502
rthumb 8.03584 -11.148
lclavicle -6.36111e-015 3.10104e-014
lhumerus -40.3294 -25.9702 96.1066
lradius 63.3053
lwrist -7.72531
lhand -31.9541 -19.0883
lfingers 7.12502
lthumb -5.20441 10.8278
rfemur -14.1364 -9.76714 17.3803
rtibia 33.9907
rfoot -18.3592 23.1401
rtoes -0.501294
lfemur -13.2965 6.79679 -21.1068
ltibia 33.3311
lfoot -20.6738 -8.21772
ltoes -5.76097
47
root -28.54 19.0916 -23.7878 -1434.39 -13.4198 -0.151573
lowerback -6.09586 2.00071 -0.958732
upperback 8.25168 3.02708 -2.07938
thorax 12.4215 1.47245 -1.22096
lowerneck 0.142069 -1.19055 1.49826
upperneck 13.1404 -1.70793 0.264846
head 4.27022 -0.765241 -0.236622
rclavicle 2.46493e-014 7.15625e-015
rhumerus -28.1079 -11.1126 -93.4093
rradius 40.68
rwrist -0.575763
rhand -18.0849 18.6012
rfingers 7.12502
rthumb 8.18836 -11.2201
lclavicle 2.46493e-014 7.15625e-015
lhumerus -40.281 -25.9612 96.1191
lradius 62.7596
lwrist -7.25003
lhand -31.7776 -18.5941
lfingers 7.12502
lthumb -5.03395 11.3261
rfemur -14.1246 -9.25665 17.3525
rtibia 33.9946
rfoot -18.5362 22.6602
rtoes -0.532296
lfemur -13.2742 7.13325 -21.1389
ltibia 33.2702
lfoot -20.8037 -8.65749
ltoes -5.53319
48
root -28.5365 19.0898 -23.7599 -1434.33 -13.4505 -0.103959
lowerback -6.11968 1.94643 -1.14109
upperback 8.26579 2.97837 -2.09935
thorax 12.4431 1.4332 -1.14822
lowerneck 0.133072 -1.1365 1.39638
upperneck 13.0527 -1.63815 0.329319
head 4.24196 -0.733758 -0.194374
rclavicle 1.59028e-015 8.74653e-015
rhumerus -28.1968 -11.3212 -93.3292
rradius 40.0244
rwrist -0.394727
rhand -17.9747 18.5782
rfingers 7.12502
rthumb 8.29472 -11.2389
lclavicle 1.59028e-015 8.74653e-015
lhumerus -40.2095 -25.8896 96.1061
lradius 62.1884
lwrist -6.74391
lhand -31.5641 -18.2016
lfingers 7.12502
lthumb -4.82787 11.7234
rfemur -14.0963 -8.70889 17.3061
rtibia 34.0126
rfoot -18.7875 22.1295
rtoes -0.688754
lfemur -13.2251 7.44651 -21.1951
ltibia 33.2062
lfoot -20.9394 -9.04255
ltoes -5.64918
49
root -28.5329 19.0875 -23.7306 -1434.27 -13.4805 -0.0789608
lowerback -6.13926 1.89889 -1.28496
upperback 8.26903 2.93383 -2.11902
thorax 12.4519 1.39956 -1.09618
lowerneck 0.143604 -1.07921 1.26525
upperneck 12.9466 -1.56667 0.432895
head 4.20375 -0.701244 -0.13375
rclavicle 1.21259e-014 1.35174e-014
rhumerus -28.3165 -11.4673 -93.2529
rradius 39.369
rwrist -0.177307
rhand -17.9395 18.5193
rfingers 7.12502
rthumb 8.32872 -11.2965
lclavicle 1.21259e-014 1.35174e-014
lhumerus -40.102 -25.8399 96.0974
lradius 61.5227
lwrist -6.2783
lhand -31.4252 -17.7527
lfingers 7.12502
lthumb -4.69374 12.1753
rfemur -14.0632 -8.13564 17.2825
rtibia 34.0347
rfoot -19.0527 21.549
rtoes -0.850677
lfemur -13.1706 7.68996 -21.2286
ltibia 33.1513
lfoot -21.0866 -9.41771
ltoes -5.36927
50
root -28.5278 19.0848 -23.6985 -1434.21 -13.5336 -0.0393972
lowerback -6.18261 1.83982 -1.40403
upperback 8.28123 2.87438 -2.16277
thorax 12.4887 1.36226 -1.086
lowerneck 0.133208 -0.9953 1.15998
upperneck 12.8542 -1.45736 0.503193
head 4.17415 -0.650212 -0.0877616
rclavicle -5.76476e-015 -1.74931e-014
rhumerus -28.4159 -11.6237 -93.2214
rradius 38.6968
rwrist 0.0961119
rhand -17.9187 18.494
rfingers 7.12502
rthumb 8.34878 -11.321
lclavicle -5.76476e-015 -1.74931e-014
lhumerus -39.9928 -25.7536 96.0498
lradius 60.8813
lwrist -5.73406
lhand -31.2944 -17.411
lfingers 7.12502
lthumb -4.56744 12.5197
rfemur -14.053 -7.80406 17.2196
rtibia 34.0786
rfoot -19.2822 21.2195
rtoes -1.14938
lfemur -13.1095 7.97359 -21.2853
ltibia 33.0864
lfoot -21.2245 -9.84324
ltoes -5.09927
51
root -28.5239 19.0809 -23.6655 -1434.15 -13.5769 -0.0180704
lowerback -6.21744 1.78498 -1.50255
upperback 8.29952 2.81837 -2.20788
thorax 12.5288 1.32859 -1.08854
lowerneck 0.132056 -0.912545 1.06326
upperneck 12.7259 -1.3502 0.582416
head 4.12968 -0.599624 -0.0402992
rclavicle 1.59028e-014 -1.51076e-014
rhumerus -28.5262 -11.774 -93.1919
rradius 38.0665
rwrist 0.359988
rhand -17.872 18.4035
rfingers 7.12502
rthumb 8.39388 -11.4097
lclavicle 1.59028e-014 -1.51076e-014
lhumerus -39.8588 -25.708 95.9995
lradius 60.2112
lwrist -5.09997
lhand -31.2326 -17.1349
lfingers 7.12502
lthumb -4.50771 12.7972
rfemur -14.0184 -7.43197 17.1862
rtibia 34.1266
rfoot -19.6226 20.8163
rtoes -1.69729
lfemur -13.0353 8.2573 -21.3204
ltibia 33.0328
lfoot -21.3756 -10.2446
ltoes -5.01564
52
root -28.5194 19.0771 -23.6299 -1434.09 -13.6528 0.0417051
lowerback -6.28931 1.73638 -1.61566
upperback 8.31591 2.77566 -2.26833
thorax 12.5903 1.30058 -1.09652
lowerneck 0.109749 -0.823063 0.933578
upperneck 12.6382 -1.23406 0.666563
head 4.10408 -0.545569 0.014501
rclavicle 1.66979e-014 -5.56597e-015
rhumerus -28.6362 -11.9393 -93.1626
rradius 37.4551
rwrist 0.650128
rhand -17.7819 18.2637
rfingers 7.12502
rthumb 8.48085 -11.546
lclavicle 1.66979e-014 -5.56597e-015
lhumerus -39.7384 -25.694 95.9581
lradius 59.585
lwrist -4.38686
lhand -31.2136 -16.7394
lfingers 7.12502
lthumb -4.48944 13.193
rfemur -14.0207 -7.11451 17.097
rtibia 34.1944
rfoot -19.927 20.4746
rtoes -2.33171
lfemur -12.9667 8.52375 -21.4138
ltibia 32.9703
lfoot -21.57 -10.549
ltoes -5.12259
